<?xml version="1.0" encoding="utf-8"?>
<!-- Generator: Adobe Illustrator 17.0.2, SVG Export Plug-In . SVG Version: 6.00 Build 0)  -->
<!DOCTYPE svg PUBLIC "-//W3C//DTD SVG 1.1//EN" "http://www.w3.org/Graphics/SVG/1.1/DTD/svg11.dtd">
<svg version="1.1" xmlns="http://www.w3.org/2000/svg" xmlns:xlink="http://www.w3.org/1999/xlink" x="0px" y="0px"
	 width="595.215px" height="519.3px" viewBox="0 0 595.215 519.3" enable-background="new 0 0 595.215 519.3" xml:space="preserve">
	<path fill="#C0392B" d="M298.561,519.3L46.736,290.129c-8.049-8.582-15.287-18.091-21.492-28.272
			c-6.119-10.032-11.215-20.735-15.159-31.822C3.401,211.219,0,191.817,0,172.35C0,77.311,77.311,0,172.35,0
			c47.845,0,92.961,19.775,125.262,53.964C329.904,19.775,375.03,0,422.875,0c95.029,0,172.34,77.311,172.34,172.35
			c0,19.136-3.283,38.24-9.744,56.768c-4.126,11.791-9.552,23.176-16.161,33.816c-5.554,8.955-11.961,17.441-19.051,25.234
			l-1.354,1.365L298.561,519.3z M77.279,260.354l221.165,201.187l220.909-202.754c5.106-5.682,9.712-11.844,13.72-18.315
			c4.968-8.006,9.051-16.567,12.153-25.426c4.883-13.997,7.356-28.368,7.356-42.706c0-71.522-58.186-129.708-129.697-129.708
			c-43.176,0-83.398,21.396-107.587,57.237l-17.675,26.183l-17.675-26.172c-24.21-35.841-64.422-57.248-107.598-57.248
			c-71.511,0-129.708,58.186-129.708,129.708c0,14.584,2.559,29.178,7.612,43.399c2.964,8.326,6.801,16.375,11.396,23.912
			C66.192,247.103,71.447,254.053,77.279,260.354z"/>
	<path fill="#C0392B" d="M499.526,98.075c20.26,20.26,30.39,44.68,30.39,73.26c0,28.59-10.13,53.01-30.39,73.27
		c-20.26,20.26-44.68,30.39-73.26,30.39c-28.59,0-53.01-10.13-73.27-30.39c-20.26-20.26-30.39-44.68-30.39-73.27
		c0-28.58,10.13-53,30.39-73.26c20.26-20.26,44.68-30.39,73.27-30.39C454.846,67.685,479.266,77.815,499.526,98.075z
		 M502.826,201.965c3.92-9.9,5.89-20.11,5.89-30.63c0-22.77-8.05-42.21-24.15-58.3c-16.1-16.1-35.53-24.15-58.3-24.15
		c-22.78,0-42.21,8.05-58.31,24.15c-16.1,16.09-24.15,35.53-24.15,58.3c0,10.68,1.97,20.89,5.89,30.63
		c22.46-15.39,44.06-24.03,64.79-25.92l-2.36,18.85c-9.42,4.55-14.13,13.19-14.13,25.91c0,7.86,2.74,14.53,8.24,20.03
		c5.5,5.49,12.17,8.24,20.03,8.24c7.85,0,14.52-2.75,20.02-8.24c5.5-5.5,8.25-12.17,8.25-20.03c0-12.72-4.72-21.36-14.14-25.91
		l-2.36-18.85C459.086,177.775,480.676,186.415,502.826,201.965z"/>
	<path fill="#C0392B" d="M443.926,214.685c1.89,4.71,1.69,9.54-0.58,14.49c-2.28,4.94-5.78,8.2-10.49,9.77
		c-4.55,1.73-9.23,1.57-14.02-0.47c-4.79-2.04-8.12-5.34-10.01-9.89c-1.88-4.4-1.92-9.03-0.12-13.9c1.81-4.87,4.91-8.33,9.31-10.37
		l5.89-69.49c0-2.2,0.39-3.77,1.18-4.71c0.78-0.95,1.57-0.95,2.35,0c0.79,0.94,1.18,2.51,1.18,4.71l5.89,69.49
		C439.066,206.515,442.206,209.975,443.926,214.685z"/>
</svg>
